<mxfile host="app.diagrams.net" modified="2023-12-13T02:04:32.947Z" agent="Mozilla/5.0 (Macintosh; Intel Mac OS X 10_15_7) AppleWebKit/605.1.15 (KHTML, like Gecko) Version/16.4 Safari/605.1.15" etag="Kenm_2KEC-ntx7gW1kir" version="22.1.8" type="github">
  <diagram name="第 1 页" id="j2m2iXUrCiTk5ByBq5zU">
    <mxGraphModel dx="1434" dy="827" grid="1" gridSize="10" guides="1" tooltips="1" connect="1" arrows="1" fold="1" page="1" pageScale="1" pageWidth="827" pageHeight="1169" math="0" shadow="0">
      <root>
        <mxCell id="0" />
        <mxCell id="1" parent="0" />
        <mxCell id="KqLpRgBjB2Q8fNJ3fjdW-1" value="" style="shape=cylinder3;whiteSpace=wrap;html=1;boundedLbl=1;backgroundOutline=1;size=15;" vertex="1" parent="1">
          <mxGeometry x="220" y="360" width="110" height="90" as="geometry" />
        </mxCell>
        <mxCell id="KqLpRgBjB2Q8fNJ3fjdW-2" value="" style="rounded=1;whiteSpace=wrap;html=1;rotation=-45;" vertex="1" parent="1">
          <mxGeometry x="510" y="160" width="60" height="20" as="geometry" />
        </mxCell>
      </root>
    </mxGraphModel>
  </diagram>
</mxfile>
